<?xml version="1.0" encoding="UTF-8" standalone="no"?>
<!-- Created with Inkscape (http://www.inkscape.org/) -->

<svg
   version="1.1"
   id="svg1"
   width="512"
   height="512"
   viewBox="0 0 512 512"
   sodipodi:docname="wallet (1).svg"
   inkscape:version="1.3 (0e150ed6c4, 2023-07-21)"
   xmlns:inkscape="http://www.inkscape.org/namespaces/inkscape"
   xmlns:sodipodi="http://sodipodi.sourceforge.net/DTD/sodipodi-0.dtd"
   xmlns="http://www.w3.org/2000/svg"
   xmlns:svg="http://www.w3.org/2000/svg">
  <defs
     id="defs1">
    <rect
       x="461.85568"
       y="174.18558"
       width="62.46048"
       height="86.213058"
       id="rect152" />
    <rect
       x="461.85568"
       y="174.18558"
       width="62.46048"
       height="86.213058"
       id="rect153" />
  </defs>
  <sodipodi:namedview
     id="namedview1"
     pagecolor="#ffffff"
     bordercolor="#000000"
     borderopacity="0.25"
     inkscape:showpageshadow="2"
     inkscape:pageopacity="0.0"
     inkscape:pagecheckerboard="0"
     inkscape:deskcolor="#d1d1d1"
     inkscape:zoom="1.2056723"
     inkscape:cx="230.16204"
     inkscape:cy="383.6034"
     inkscape:window-width="1920"
     inkscape:window-height="1111"
     inkscape:window-x="-9"
     inkscape:window-y="-9"
     inkscape:window-maximized="1"
     inkscape:current-layer="layer2" />
  <g
     inkscape:groupmode="layer"
     id="layer2"
     inkscape:label="Image 1">
    <g
       inkscape:groupmode="layer"
       id="layer3"
       inkscape:label="Layer 1">
      <g
         id="g153"
         transform="translate(1366.034,-459.16178)">
        <g
           id="g152"
           transform="translate(-958.27442,97.2775)">
          <g
             id="g151"
             transform="translate(39.811813,81.282451)">
            <g
               id="g146"
               transform="translate(-181.6414,3.3176538)">
              <path
                 d="m -23.6157,394.36472 c -3.37753,0.0541 -6.74224,0.43475 -10.04688,1.13672 -3.83487,0.87779 -7.55958,2.18488 -11.10351,3.89648 -3.54403,1.71115 -6.88546,3.81625 -9.96094,6.27539 -3.07472,2.45954 -5.86448,5.25782 -8.31641,8.3418 -2.45285,3.0838 -4.55271,6.4344 -6.25976,9.98828 -0.41587,1.07762 -0.79631,2.16877 -1.14063,3.27148 l -20.55664,0.18164 c -0.80888,0.25738 -1.76204,0.46361 -2.84961,0.76172 -0.54378,0.14906 -1.12158,0.32034 -1.73047,0.53321 -0.60889,0.21287 -1.24897,0.46685 -1.91992,0.77929 -0.67095,0.31245 -1.37159,0.6831 -2.10156,1.13086 -0.72996,0.44776 -1.48945,0.97296 -2.27539,1.5918 -0.78593,0.61882 -1.59863,1.33254 -2.4375,2.1582 -0.83886,0.82566 -1.705,1.7638 -2.59375,2.83203 -0.37854,0.455 -0.735,0.97927 -1.07031,1.54883 -0.33532,0.56956 -0.64855,1.18324 -0.93946,1.81836 -0.5818,1.27025 -1.0735,2.62266 -1.4707,3.86133 -0.39719,1.23867 -0.70104,2.36444 -0.9043,3.17969 -0.16056,0.64399 -0.20784,0.88201 -0.24218,1.04297 v 75.04882 l 0.082,95.16211 c 0,0 -0.0369,0.39832 0.0215,1.1211 0.0292,0.36139 0.0826,0.8042 0.17578,1.31836 0.0932,0.51416 0.22783,1.09972 0.41797,1.74804 0.19014,0.64833 0.43585,1.35918 0.75586,2.12305 0.32,0.76386 0.71446,1.58061 1.19727,2.44141 0.48281,0.8608 1.05388,1.76595 1.73242,2.70507 0.67853,0.93913 1.46389,1.91329 2.37109,2.91211 0.90719,0.99883 1.84579,1.87199 2.79492,2.63672 0.94915,0.76473 1.90875,1.42059 2.85547,1.98242 0.94671,0.56185 1.88135,1.02976 2.78125,1.41993 0.89989,0.39017 1.76553,0.70341 2.57422,0.95312 0.80868,0.2497 1.56128,0.43767 2.23438,0.57813 0.67309,0.14046 1.26664,0.2325 1.75976,0.29492 0.98623,0.12485 1.56836,0.125 1.56836,0.125 l 204.16992,-0.0723 c 0,0 0.23352,0.005 0.63672,-0.041 0.40319,-0.0458 0.97619,-0.14215 1.6543,-0.34375 0.6781,-0.2016 1.46043,-0.50923 2.28516,-0.97657 0.41236,-0.23367 0.8348,-0.5074 1.25976,-0.82812 0.42497,-0.32073 0.85192,-0.68786 1.27344,-1.10938 0.42153,-0.42152 0.80365,-0.85223 1.14844,-1.2832 0.34478,-0.43098 0.65283,-0.86249 0.92773,-1.28516 0.54982,-0.84533 0.96773,-1.65768 1.2793,-2.36328 0.31156,-0.70559 0.51624,-1.30469 0.64453,-1.72851 0.1283,-0.42381 0.17969,-0.67188 0.17969,-0.67188 v -51.83008 c 0,0 1.0443,-0.38453 2.2539,-1.03515 0.6048,-0.3253 1.25082,-0.71687 1.82813,-1.16016 0.28865,-0.22164 0.56023,-0.45756 0.80078,-0.70312 0.24054,-0.24556 0.45029,-0.50184 0.61523,-0.76758 1.31955,-2.12595 2.56641,-4.4707 2.56641,-4.4707 l 0.0645,-13.09766 v -17.40039 c -0.0556,-0.38113 -0.14393,-0.86683 -0.32226,-1.45703 -0.19244,-0.63687 -0.4753,-1.36369 -0.89453,-2.10938 -0.20962,-0.37284 -0.45369,-0.74919 -0.73633,-1.12304 -0.28265,-0.37385 -0.60416,-0.74418 -0.97071,-1.10157 -0.73307,-0.71476 -1.42052,-1.28711 -2.03906,-1.74414 -0.61854,-0.45704 -1.16877,-0.79878 -1.62695,-1.05078 -0.91636,-0.504 -1.46484,-0.65039 -1.46485,-0.65039 l -0.0742,-51.61133 c -0.0965,-0.63833 -0.32424,-1.54122 -0.5918,-2.38086 -0.26755,-0.83964 -0.57451,-1.61509 -0.83008,-1.99804 -0.39442,-0.59105 -0.91956,-1.08964 -1.41406,-1.60352 -0.24725,-0.25694 -0.4874,-0.51822 -0.69922,-0.79687 -0.21181,-0.27865 -0.39518,-0.57465 -0.53125,-0.90235 -0.0757,-9.85966 -0.0918,-34.04101 -0.0918,-34.04101 0,0 -0.24925,-0.96107 -0.80078,-2.28125 -0.27577,-0.66009 -0.62637,-1.40988 -1.06055,-2.17383 -0.43416,-0.76394 -0.95038,-1.54274 -1.55664,-2.25977 -0.3086,-0.36498 -0.65481,-0.69586 -1.02343,-0.99609 -0.36862,-0.30024 -0.75968,-0.56959 -1.16016,-0.81055 -0.80094,-0.48191 -1.63911,-0.85134 -2.39844,-1.1289 -0.75933,-0.27757 -1.44124,-0.46316 -1.93359,-0.58008 -0.49234,-0.11692 -0.79492,-0.16406 -0.79492,-0.16406 l -29.51953,-0.25782 c -0.23082,-0.32162 -0.46521,-0.64065 -0.70313,-0.95703 -0.82608,-1.03857 -1.69062,-2.04579 -2.5918,-3.01953 -0.90085,-0.97359 -1.83771,-1.91305 -2.80859,-2.81641 -0.97061,-0.9032 -1.97458,-1.7697 -3.00977,-2.59765 -1.03596,-0.82812 -2.10247,-1.61709 -3.19726,-2.36524 -1.09435,-0.74818 -2.21624,-1.45506 -3.36328,-2.11914 -1.14702,-0.66413 -2.31842,-1.28501 -3.51172,-1.86133 -1.1933,-0.57658 -2.4077,-1.10821 -3.64063,-1.59375 -1.23254,-0.4855 -2.48277,-0.92461 -3.74804,-1.3164 -1.2654,-0.39093 -2.54495,-0.73427 -3.83594,-1.0293 -1.29174,-0.29615 -2.59409,-0.54372 -3.9043,-0.74219 -1.30975,-0.19774 -2.62644,-0.34628 -3.94726,-0.44531 -1.32061,-0.0991 -2.64446,-0.14859 -3.96875,-0.14844 -3.97689,2e-4 -7.94122,0.44832 -11.81836,1.33594 -3.87744,0.88748 -7.64327,2.20893 -11.22656,3.93945 -0.20399,0.12623 -0.40712,0.25384 -0.60938,0.38282 -0.13961,-0.16493 -0.28025,-0.329 -0.42187,-0.49219 -0.89082,-0.96276 -1.81729,-1.89184 -2.77735,-2.78516 -0.95986,-0.89366 -1.95279,-1.75107 -2.97656,-2.57031 -1.02454,-0.8192 -2.07937,-1.59974 -3.16211,-2.33984 -1.08225,-0.73989 -2.19181,-1.43899 -3.32617,-2.09571 -1.13425,-0.65646 -2.29267,-1.2702 -3.47266,-1.83984 -1.17982,-0.57019 -2.3806,-1.09598 -3.59961,-1.57617 -1.21969,-0.47982 -2.45694,-0.91374 -3.70898,-1.30078 -1.25182,-0.38717 -2.51775,-0.72727 -3.79492,-1.01953 -1.27687,-0.2923 -2.5643,-0.53663 -3.85938,-0.73243 -1.18707,-0.17568 -2.37989,-0.31053 -3.57617,-0.40429 z m 2.5039,7.95117 c 1.24245,1.3e-4 2.48446,0.0516 3.72266,0.1543 1.23887,0.10259 2.47306,0.25637 3.69922,0.46093 1.22612,0.20416 2.44337,0.45895 3.64844,0.76368 1.20488,0.30542 2.39672,0.66056 3.57226,1.06445 1.17568,0.40311 2.33428,0.85469 3.47266,1.35351 1.13796,0.49985 2.25486,1.04657 3.34765,1.63868 1.09284,0.59103 2.16086,1.22702 3.20118,1.90625 1.04112,0.67983 2.05375,1.40249 3.03515,2.16601 0.98071,0.76383 1.92948,1.56794 2.84375,2.41016 0.42276,0.40657 0.83757,0.82138 1.24414,1.24414 -1.0838,0.63076 -2.14502,1.29981 -3.18164,2.00586 -3.10936,2.48655 -5.93047,5.31552 -8.41015,8.43359 -0.25053,0.3887 -0.49599,0.78067 -0.73633,1.17578 -2.15349,2.78186 -4.02665,5.7712 -5.5918,8.92383 -1.72534,3.59324 -3.04289,7.36965 -3.92773,11.25781 -0.88515,3.88863 -1.33198,7.86487 -1.33203,11.85352 0.0766,3.11508 0.42556,6.21759 1.04296,9.27148 h -49.39062 c -0.30629,-0.46771 -0.6039,-0.94113 -0.89258,-1.41992 -0.73236,-1.5214 -1.37707,-3.08055 -1.93359,-4.67187 -0.55653,-1.59134 -1.02496,-3.21511 -1.40039,-4.86133 -0.37573,-1.64604 -0.65888,-3.30925 -0.84766,-4.98438 -0.18876,-1.67511 -0.28318,-3.3624 -0.2832,-5.05078 1e-4,-1.68804 0.0964,-3.37209 0.28515,-5.04687 0.18878,-1.6748 0.47005,-3.34062 0.84571,-4.98633 0.37543,-1.64623 0.84386,-3.26804 1.40039,-4.85938 0.55652,-1.59132 1.20123,-3.15244 1.93359,-4.67382 0.12344,-0.19954 0.24846,-0.39812 0.375,-0.59571 1.38448,-2.81839 3.05967,-5.48469 4.99805,-7.95508 2.10531,-2.63996 4.50066,-5.03531 7.14062,-7.14062 2.64004,-2.10545 5.50843,-3.90786 8.55078,-5.37305 3.04281,-1.46473 6.24075,-2.58312 9.53321,-3.33398 3.29208,-0.75146 6.6584,-1.13081 10.03515,-1.13086 z m 62.37696,12.58203 c 1.24312,7e-5 2.48573,0.0515 3.72461,0.1543 1.23889,0.10259 2.47303,0.25637 3.69922,0.46093 1.22614,0.20417 2.44334,0.45895 3.64843,0.76368 1.20491,0.30543 2.3967,0.66055 3.57227,1.06445 1.17504,0.40317 2.33294,0.85473 3.4707,1.35352 1.13865,0.4998 2.25615,1.0465 3.34961,1.63867 1.09286,0.59104 2.16083,1.22701 3.20117,1.90625 1.04048,0.67989 2.05242,1.40252 3.03321,2.16601 0.98139,0.7638 1.93077,1.56788 2.8457,2.41016 0.028,0.028 0.056,0.0559 0.084,0.084 0.88393,0.8159 1.73489,1.66685 2.55078,2.55078 0.84223,0.91429 1.64632,1.86303 2.41016,2.84375 0.76287,0.98146 1.48486,1.99406 2.16406,3.03516 0.6799,1.0403 1.31653,2.10829 1.90821,3.20117 0.59145,1.09285 1.1375,2.20971 1.63672,3.34766 0.49948,1.13836 0.9517,2.29693 1.35546,3.47266 0.4039,1.17556 0.75903,2.36736 1.06446,3.57226 0.30472,1.20509 0.5595,2.4223 0.76367,3.64844 0.20456,1.22618 0.35834,2.46033 0.46094,3.69922 0.10269,1.23821 0.15417,2.48018 0.15429,3.72265 -0.0533,2.80641 -0.36844,5.6018 -0.9414,8.34961 l -59.58985,0.01 H 18.6558 l -21.54492,0.004 c -0.5738,-2.75227 -0.88899,-5.55232 -0.94141,-8.36328 6e-5,-3.37678 0.3794,-6.74305 1.13086,-10.03515 0.75101,-3.29182 1.86939,-6.48905 3.33399,-9.53125 1.4652,-3.04239 3.26758,-5.91073 5.37304,-8.55078 1.48173,-1.72456 3.09185,-3.33468 4.81641,-4.81641 0.74623,-0.80272 1.5215,-1.57799 2.32422,-2.32422 1.09873,-0.76018 2.23072,-1.47118 3.39258,-2.13086 1.64434,-1.19576 3.36769,-2.27897 5.1582,-3.24219 0.29836,-0.10797 0.59786,-0.2128 0.89844,-0.31445 2.76783,-1.29644 5.66033,-2.30816 8.63281,-3.01953 3.29215,-0.75147 6.65833,-1.13081 10.03516,-1.13086 z m 70.47265,20.68359 c 0,0 0.37612,0.12318 0.82032,0.33985 0.22209,0.10834 0.4604,0.24056 0.67773,0.39258 0.21735,0.15201 0.41344,0.32302 0.54883,0.51171 0.274,0.3819 0.48748,0.92618 0.63281,1.375 0.14534,0.44882 0.22266,0.80274 0.22266,0.80274 l 0.10351,29.23633 H 92.69875 c 0.60165,-3.00196 0.94407,-6.05037 1.02344,-9.11133 v -0.006 -0.004 -0.006 -0.004 -0.006 -0.006 -0.004 -0.006 -0.004 -0.006 -0.006 -0.004 -0.006 -0.004 -0.006 -0.006 -0.004 -0.006 -0.006 -0.004 -0.006 -0.004 -0.006 -0.006 -0.004 -0.006 -0.004 -0.006 -0.006 -0.004 -0.006 -0.004 -0.006 -0.004 -0.006 -0.006 -0.004 -0.006 -0.004 -0.006 -0.004 -0.006 -0.006 -0.004 -0.006 -0.004 -0.006 -0.004 -0.006 -0.006 -0.004 -0.006 -0.004 -0.006 -0.004 -0.006 c -5.9e-4,-0.0475 -10e-4,-0.0951 -0.002,-0.14258 v -0.006 -0.004 -0.006 -0.004 -0.006 -0.006 -0.004 -0.006 -0.004 -0.006 -0.006 -0.004 -0.006 -0.004 -0.006 -0.006 -0.004 -0.006 -0.006 -0.004 -0.006 -0.004 -0.006 -0.006 -0.004 -0.006 -0.004 -0.006 c -5.9e-4,-0.0475 -0.001,-0.095 -0.002,-0.14258 -5.9e-4,-0.0475 -0.001,-0.0951 -0.002,-0.14258 -10e-4,-0.0475 -0.003,-0.095 -0.004,-0.14257 -5.8e-4,-0.0475 -0.001,-0.0951 -0.002,-0.14258 -10e-4,-0.0469 -0.003,-0.0937 -0.004,-0.14063 -5.8e-4,-0.0475 -0.001,-0.095 -0.002,-0.14258 -10e-4,-0.0475 -0.003,-0.095 -0.004,-0.14257 -0.002,-0.0475 -0.004,-0.0951 -0.006,-0.14258 -0.001,-0.0475 -0.003,-0.0951 -0.004,-0.14258 -0.002,-0.0469 -0.004,-0.0937 -0.006,-0.14063 -0.003,-0.0475 -0.005,-0.0951 -0.008,-0.14257 -0.002,-0.0475 -0.004,-0.0951 -0.006,-0.14258 -0.002,-0.0475 -0.004,-0.0951 -0.006,-0.14258 -0.002,-0.0475 -0.004,-0.0951 -0.006,-0.14258 -0.003,-0.0469 -0.005,-0.0937 -0.008,-0.14062 -0.003,-0.0475 -0.005,-0.0951 -0.008,-0.14258 -0.003,-0.0475 -0.005,-0.0951 -0.008,-0.14258 -0.003,-0.0475 -0.005,-0.095 -0.008,-0.14258 -0.003,-0.0469 -0.005,-0.0937 -0.008,-0.14062 -0.003,-0.0475 -0.006,-0.0951 -0.01,-0.14258 -0.003,-0.0475 -0.005,-0.0951 -0.008,-0.14258 -0.004,-0.0469 -0.008,-0.0937 -0.0117,-0.14062 -0.003,-0.0475 -0.006,-0.0951 -0.01,-0.14258 -0.004,-0.0475 -0.008,-0.0951 -0.0117,-0.14258 -0.0985,-1.32474 -0.24639,-2.64533 -0.44335,-3.95898 -0.19735,-1.31346 -0.44361,-2.61907 -0.73829,-3.91407 -0.29513,-1.29497 -0.63847,-2.57842 -1.02929,-3.84765 -0.38996,-1.2692 -0.82712,-2.52334 -1.31055,-3.75977 -0.48438,-1.23625 -1.0147,-2.4539 -1.58984,-3.65039 -0.0736,-0.14096 -0.14781,-0.28158 -0.22266,-0.42187 h 0.004 z m -25.22656,0.0137 h 0.004 L 90.484,468.23974 H 90.48 Z m -159.75391,0.0351 c -0.41043,1.84359 -0.72104,3.70763 -0.93164,5.58203 -0.21058,1.87441 -0.32118,3.75948 -0.33007,5.64844 0.0554,0.5824 0.12056,1.16391 0.19531,1.74414 0.0347,1.58401 0.14174,3.16544 0.31836,4.73828 0.1766,1.57285 0.4228,3.13738 0.74023,4.68946 0.0199,0.18369 0.0407,0.3673 0.0625,0.55078 0.80891,3.3262 1.93931,6.56563 3.375,9.67187 l -20.38086,-0.14844 c 0,0 -0.87547,-0.28068 -2.17383,-0.89648 -0.64916,-0.3079 -1.40415,-0.69883 -2.20703,-1.18164 -0.80288,-0.48281 -1.65538,-1.05682 -2.49804,-1.72852 -0.84266,-0.67169 -1.6768,-1.44184 -2.44532,-2.3164 -0.38426,-0.43727 -0.75134,-0.90002 -1.0957,-1.39063 -0.34435,-0.49061 -0.66485,-1.009 -0.95508,-1.55468 -0.29022,-0.54569 -0.54964,-1.12015 -0.77148,-1.72266 -0.22185,-0.60253 -0.4057,-1.23343 -0.54492,-1.89453 -0.13923,-0.6611 -0.23498,-1.35281 -0.27735,-2.07422 -0.0424,-0.72142 -0.0316,-1.47238 0.0371,-2.25586 0.0687,-0.78349 0.1833,-1.52878 0.33789,-2.23828 0.15459,-0.7095 0.34775,-1.38264 0.57617,-2.02149 0.22844,-0.63884 0.49101,-1.24487 0.78125,-1.8164 0.29026,-0.57153 0.60917,-1.10964 0.94922,-1.61719 0.34006,-0.50755 0.70225,-0.98474 1.08008,-1.43164 0.37782,-0.44691 0.77025,-0.86432 1.17383,-1.25391 0.80717,-0.77919 1.65412,-1.44564 2.49219,-2.01562 0.83808,-0.56997 1.66859,-1.04225 2.4414,-1.42969 0.77281,-0.38745 1.48824,-0.69026 2.09961,-0.92187 1.22275,-0.46321 2.02735,-0.64258 2.02735,-0.64258 z m -29.88867,34.52735 c 0,0 0.45217,0.35089 1.48242,1.03125 1.03026,0.68036 2.63857,1.68988 4.94532,3.01171 1.15337,0.66093 2.19527,1.14378 3.11133,1.4961 0.91604,0.35233 1.70489,0.57553 2.3496,0.71484 0.64473,0.13931 1.14696,0.19493 1.48633,0.2168 0.33938,0.0219 0.51758,0.01 0.51758,0.01 l 24.28711,0.0254 9.72266,0.01 46.05859,0.0449 8.81445,0.01 13.29102,0.0137 8.01367,0.008 61.91016,0.0625 7.49414,0.008 25.58398,0.0254 c 0,0 0.16874,-5.9e-4 0.4668,0.14843 0.14904,0.0745 0.33009,0.18585 0.53906,0.35352 0.20897,0.16765 0.4459,0.39139 0.70508,0.68945 0.51838,0.59613 0.81591,1.02411 0.98437,1.30274 0.16847,0.27862 0.20704,0.4082 0.20704,0.4082 l -0.15625,50.23242 -23.01563,0.20703 c 0,0 -0.3665,0.0479 -1.00586,0.17578 -0.63936,0.12787 -1.55083,0.33525 -2.64062,0.65235 -1.0898,0.3171 -2.35769,0.74483 -3.70899,1.3125 -0.67565,0.28384 -1.37251,0.60295 -2.07812,0.96094 -0.70561,0.35798 -1.42087,0.75355 -2.13282,1.19335 -0.71194,0.43981 -1.42055,0.92383 -2.11523,1.45313 -0.69467,0.52929 -1.37551,1.10402 -2.0293,1.73047 -0.65378,0.62645 -1.2818,1.30389 -1.87109,2.03515 -0.58928,0.73128 -1.13947,1.51756 -1.64063,2.36133 -0.50114,0.84377 -0.95237,1.74506 -1.34179,2.70899 -0.38942,0.96393 -0.71663,1.99026 -0.97071,3.08203 -0.25406,1.09177 -0.43614,2.24929 -0.53125,3.47656 -0.0951,1.22727 -0.10314,2.52409 -0.0156,3.89453 0.0875,1.37044 0.2477,2.66552 0.47266,3.88672 0.22495,1.22119 0.51405,2.36878 0.85742,3.44922 0.34337,1.08042 0.74086,2.09288 1.18359,3.04102 0.44272,0.94812 0.9301,1.83191 1.45313,2.65625 0.52302,0.82432 1.08174,1.58982 1.66601,2.29882 0.58427,0.70901 1.19388,1.3627 1.82031,1.96485 0.62645,0.60215 1.27036,1.15247 1.91993,1.65625 0.64957,0.50378 1.30536,0.96112 1.95898,1.375 0.65364,0.41389 1.30473,0.78471 1.94336,1.11718 0.63864,0.33248 1.26457,0.62523 1.86914,0.88477 1.20916,0.51908 2.33244,0.90147 3.29102,1.17969 0.95857,0.27822 1.75306,0.45339 2.30859,0.55859 0.55553,0.10519 0.87109,0.14063 0.87109,0.14063 l 23.58789,0.25976 0.0508,50.28321 c 0,0 -0.31139,0.51763 -1.03711,1.76171 -0.18143,0.31103 -0.43098,0.54381 -0.70313,0.71875 -0.27215,0.17495 -0.56574,0.29139 -0.83789,0.36914 -0.54429,0.15552 -0.99805,0.15625 -0.99805,0.15625 l -203.77734,0.20704 c 0,0 -0.39076,-0.10058 -1.03711,-0.30469 -0.64633,-0.20411 -1.54715,-0.51108 -2.56445,-0.92578 -1.0173,-0.41469 -2.15275,-0.9366 -3.26563,-1.56836 -0.55643,-0.31588 -1.10606,-0.65988 -1.63476,-1.03125 -0.5287,-0.37136 -1.03543,-0.76962 -1.50196,-1.19727 -0.46653,-0.42766 -0.89127,-0.8979 -1.27539,-1.39258 -0.38412,-0.49467 -0.72851,-1.01372 -1.03711,-1.54101 -0.30859,-0.52728 -0.58068,-1.06225 -0.82031,-1.58789 -0.23962,-0.52565 -0.44681,-1.04204 -0.625,-1.53125 -0.35638,-0.97842 -0.5974,-1.84967 -0.74805,-2.47656 -0.15064,-0.62691 -0.21289,-1.00977 -0.21289,-1.00977 z m 227.10352,68.47851 c 0,0 0.42266,0.0476 0.9375,0.22461 0.25742,0.0885 0.53772,0.20949 0.79883,0.37305 0.2611,0.16356 0.50411,0.36972 0.68554,0.6289 0.36287,0.51837 0.56076,0.93702 0.66797,1.22657 0.1072,0.28955 0.12305,0.44922 0.12305,0.44922 l -0.20703,26.02343 c 0,0 -0.0267,0.50809 -0.15625,1.09375 -0.0648,0.29284 -0.15489,0.60488 -0.28125,0.88282 -0.12635,0.27793 -0.28875,0.52221 -0.4961,0.67773 -0.4147,0.31102 -0.90615,0.52792 -1.29492,0.66797 -0.38878,0.14006 -0.67383,0.20312 -0.67383,0.20312 l -27.66992,0.25 c 0,0 -0.90755,-0.19621 -2.26562,-0.69922 -0.67904,-0.2515 -1.47118,-0.57917 -2.31836,-0.99804 -0.84717,-0.41886 -1.74933,-0.92902 -2.65039,-1.54297 -0.90106,-0.61397 -1.79994,-1.33312 -2.64063,-2.16992 -0.42035,-0.4184 -0.8271,-0.8664 -1.21094,-1.34571 -0.38382,-0.47931 -0.74508,-0.98951 -1.07812,-1.5332 -0.33303,-0.54369 -0.63829,-1.1209 -0.90625,-1.73242 -0.26795,-0.61154 -0.49889,-1.25661 -0.6875,-1.93945 -0.1886,-0.68285 -0.33473,-1.40254 -0.42969,-2.16016 -0.095,-0.75763 -0.13796,-1.55475 -0.125,-2.39063 0.013,-0.83586 0.0756,-1.62962 0.18164,-2.38476 0.10608,-0.75515 0.25474,-1.47022 0.44141,-2.14844 0.18668,-0.67822 0.41128,-1.31874 0.66601,-1.92383 0.25474,-0.60508 0.53933,-1.17518 0.84961,-1.71093 0.31029,-0.53576 0.64475,-1.03759 0.99805,-1.50782 0.35331,-0.47023 0.72557,-0.90987 1.10938,-1.31836 0.76761,-0.81698 1.58396,-1.5146 2.39843,-2.10742 0.81447,-0.59281 1.62754,-1.07947 2.38868,-1.47851 0.76112,-0.39904 1.47051,-0.70967 2.07812,-0.94532 1.21523,-0.47129 2.02344,-0.64648 2.02344,-0.64648 z"
                 style="fill:#000000;fill-opacity:1;stroke-width:0.583243"
                 id="path145" />
              <text
                 xml:space="preserve"
                 transform="matrix(1.1104906,-0.53071244,0.46670267,0.97655295,-667.78562,503.89596)"
                 id="text145"
                 style="font-size:55.3633px;line-height:1.2;font-family:Helvetica;-inkscape-font-specification:'Helvetica, Normal';text-align:center;white-space:pre;shape-inside:url(#rect152);display:inline;fill:#89e988;fill-opacity:1;stroke:#000000;stroke-width:0.500251;stroke-linecap:round;stroke-linejoin:round;stroke-dasharray:none;stroke-dashoffset:0;stroke-opacity:1"><tspan
                   x="476.17688"
                   y="222.6702"
                   id="tspan1">F</tspan></text>
              <text
                 xml:space="preserve"
                 transform="matrix(1.1997519,0.27498886,-0.24016569,1.0478216,-500.16555,99.36144)"
                 id="text146"
                 style="font-size:55.3633px;line-height:1.2;font-family:Helvetica;-inkscape-font-specification:'Helvetica, Normal';text-align:center;white-space:pre;shape-inside:url(#rect153);display:inline;fill:#89e988;fill-opacity:1;stroke:#000000;stroke-width:0.500251;stroke-linecap:round;stroke-linejoin:round;stroke-dasharray:none;stroke-dashoffset:0;stroke-opacity:1"><tspan
                   x="476.17688"
                   y="222.6702"
                   id="tspan2">F</tspan></text>
            </g>
            <path
               style="fill:#ffd700;fill-opacity:1;stroke:none;stroke-width:0.360687;stroke-linecap:round;stroke-linejoin:round;stroke-dasharray:none;stroke-dashoffset:0;stroke-opacity:1"
               d="m -243.83564,468.06838 c -5.67193,-12.58893 -4.54662,-27.96622 2.98329,-40.76658 2.52939,-4.2998 10.41766,-12.18807 14.71746,-14.71746 14.8436,-8.73186 32.01985,-8.73186 46.57165,0 1.8033,1.08208 4.34076,2.90197 5.63879,4.04419 l 2.36004,2.07677 -1.69691,1.11009 c -3.19882,2.0926 -7.97373,7.04242 -11.1732,11.58248 -6.45218,9.15567 -9.70973,19.04487 -9.80946,29.77933 -0.0315,3.38694 0.15021,7.14776 0.40373,8.35738 l 0.46094,2.19932 h -24.40242 -24.40242 z m 35.76059,0.42998 c 1.60211,-0.81185 2.91292,-1.61238 2.91292,-1.77895 0,-0.16657 -0.69838,-1.67965 -1.55195,-3.3624 -0.85358,-1.68275 -2.68611,-5.50168 -4.07231,-8.48652 l -2.52035,-5.42699 10.22281,-4.93597 10.2228,-4.93596 -1.13207,-2.52858 c -0.62265,-1.39072 -1.36047,-2.60471 -1.63962,-2.69776 -0.27914,-0.093 -4.9507,1.96209 -10.38124,4.56698 -5.43053,2.60488 -10.04205,4.52343 -10.24781,4.26345 -0.80919,-1.02241 -4.94177,-10.13782 -4.69967,-10.36625 0.14168,-0.13367 5.40399,-2.67962 11.69403,-5.65766 6.29003,-2.97805 11.52081,-5.48823 11.62396,-5.57819 0.16206,-0.14135 -2.07422,-4.91128 -2.56063,-5.46178 -0.21348,-0.2416 -30.14927,14.04402 -30.43448,14.52361 -0.11053,0.18585 1.94761,4.8296 4.57364,10.31945 2.62603,5.48984 6.81958,14.2651 9.31901,19.50057 2.49942,5.23547 4.81748,9.51904 5.15123,9.51904 0.33374,0 1.91763,-0.66424 3.51973,-1.47609 z"
               id="path146" />
            <path
               style="fill:#6b4a32;fill-opacity:1;stroke:none;stroke-width:0.392135;stroke-linecap:round;stroke-linejoin:round;stroke-dasharray:none;stroke-dashoffset:0;stroke-opacity:1"
               d="m -275.19678,471.02387 c -3.66207,-2.15756 -7.56346,-6.34021 -8.83921,-9.47643 -2.34702,-5.76978 -0.25469,-13.95614 4.75199,-18.59245 4.63095,-4.28833 6.72058,-4.91357 16.47589,-4.92969 l 8.5841,-0.0142 -0.33851,8.05153 c -0.37973,9.03114 0.38833,15.41983 2.6891,22.36808 l 1.48219,4.47615 -10.81506,-0.005 c -10.77418,-0.005 -10.82706,-0.0131 -13.99049,-1.87693 z"
               id="path147" />
            <path
               style="fill:#6b4a32;fill-opacity:1;stroke:none;stroke-width:0.381223;stroke-linecap:round;stroke-linejoin:round;stroke-dasharray:none;stroke-dashoffset:0;stroke-opacity:1"
               d="m -88.99931,462.97016 c 0,-9.89011 -0.60398,-13.2856 -3.69499,-20.77282 l -1.48612,-3.59975 h 11.87533 c 11.56465,0 13.86825,0.31856 15.07344,2.0845 0.25323,0.37104 0.46473,7.64145 0.47002,16.15646 l 0.009,15.4818 -11.12363,2.2e-4 -11.12363,2.1e-4 z"
               id="path148" />
            <path
               style="fill:#8f8f8f;fill-opacity:1;stroke:none;stroke-width:0.360687;stroke-linecap:round;stroke-linejoin:round;stroke-dasharray:none;stroke-dashoffset:0;stroke-opacity:1"
               d="m -89.51418,572.57178 c -4.02309,-2.01036 -7.8944,-5.98208 -8.95078,-9.18294 -0.90495,-2.74204 -0.41783,-9.90394 0.83822,-12.32377 1.49037,-2.87126 4.89751,-5.99426 8.23516,-7.54838 2.89281,-1.34699 3.47078,-1.39352 17.37731,-1.39906 12.0768,-0.005 14.59411,0.14077 15.68843,0.90725 1.28637,0.90101 1.30346,1.10054 1.30346,15.21532 0,14.11477 -0.0171,14.3143 -1.30346,15.21531 -1.09227,0.76505 -3.59531,0.91298 -15.44814,0.91298 h -14.14467 z"
               id="path149" />
            <path
               style="fill:#ffd700;fill-opacity:1;stroke:none;stroke-width:0.180344;stroke-linecap:round;stroke-linejoin:round;stroke-dasharray:none;stroke-dashoffset:0;stroke-opacity:1"
               d="m -184.4388,471.22072 c -0.46089,-0.77118 -0.84509,-6.13026 -0.70374,-9.81648 0.26232,-6.84146 1.71225,-12.41228 4.8081,-18.47334 2.31185,-4.52616 4.58202,-7.54135 8.68007,-11.52865 12.31977,-11.98686 29.43214,-16.02103 45.4043,-10.70387 7.55539,2.5152 14.87093,7.40845 19.82574,13.26113 6.70067,7.91493 10.37465,17.09939 10.83993,27.0984 0.1596,3.43009 -0.20935,8.71895 -0.69687,9.98941 -0.1253,0.32653 -7.61323,0.39333 -44.08851,0.39333 -24.16567,0 -43.99672,-0.099 -44.06902,-0.21993 z m 33.31703,-4.39862 c 0.40208,-1.73379 1.36396,-5.93771 2.13751,-9.34204 1.14408,-5.03502 1.49202,-6.16983 1.86515,-6.08325 11.144,2.58588 21.00301,4.79528 21.398,4.79528 0.40853,0 0.64295,-0.55737 1.13656,-2.7023 0.34202,-1.48627 0.58554,-2.73863 0.54114,-2.78303 -0.0444,-0.0444 -5.01883,-1.21402 -11.0543,-2.59916 -6.03547,-1.38515 -11.00942,-2.55429 -11.05322,-2.59809 -0.0932,-0.0932 2.56611,-11.6981 2.71471,-11.84669 0.0552,-0.0552 5.62039,1.16509 12.36707,2.71177 6.74669,1.54667 12.53182,2.81154 12.85585,2.81081 0.49517,-0.001 0.67061,-0.36386 1.0998,-2.27395 0.28086,-1.24995 0.51059,-2.4899 0.51051,-2.75546 -1.6e-4,-0.5423 1.16621,-0.2447 -19.43253,-4.95815 -7.22023,-1.65215 -13.19473,-2.93686 -13.27668,-2.85491 -0.1956,0.19559 -9.78186,41.9892 -9.66028,42.11629 0.15751,0.16465 5.82014,1.46576 6.49021,1.49127 0.56333,0.0214 0.70625,-0.30721 1.3605,-3.12839 z"
               id="path150" />
            <path
               style="fill:#6b4a32;fill-opacity:1;stroke:none;stroke-width:0.180344;stroke-linecap:round;stroke-linejoin:round;stroke-dasharray:none;stroke-dashoffset:0;stroke-opacity:1"
               d="m -271.14151,636.03818 c -7.77451,-2.79271 -10.78887,-5.44846 -12.75911,-11.24121 l -0.73001,-2.14632 v -74.44296 -74.44295 l 1.68614,1.12982 c 2.84653,1.90735 6.3398,3.80638 8.31155,4.51837 l 1.8786,0.67835 103.75531,0.14663 103.75531,0.14662 1.17606,1.26082 1.17607,1.26082 -0.0975,24.92178 c -0.0851,21.762 -0.15324,24.95703 -0.53733,25.19975 -0.2569,0.16235 -5.08247,0.27984 -11.60113,0.28246 -10.35039,0.004 -11.33027,0.0488 -13.48756,0.6138 -11.42646,2.99288 -18.58667,10.4223 -19.44771,20.17891 -0.8413,9.53294 2.70344,18.52103 9.26967,23.50427 2.54602,1.93222 6.62284,3.91052 9.60808,4.66236 2.08386,0.52483 3.68089,0.61174 14.29553,0.77795 l 11.9496,0.18711 v 24.93868 24.93868 l -0.72751,1.24141 c -0.47071,0.8032 -1.05546,1.35572 -1.65659,1.56528 -0.67159,0.23412 -29.25926,0.31746 -103.15335,0.30073 -56.22336,-0.0127 -102.42223,-0.0942 -102.66415,-0.18116 z"
               id="path151" />
          </g>
        </g>
        <circle
           style="fill:none;fill-opacity:1;stroke:#000000;stroke-width:10.415;stroke-linecap:round;stroke-linejoin:round;stroke-dasharray:none;stroke-dashoffset:0;stroke-opacity:1"
           id="circle152"
           cx="-1091.8099"
           cy="715.19006"
           r="179.98256" />
        <path
           style="fill:#89e988;fill-opacity:1;stroke:#000000;stroke-width:0.687998;stroke-linecap:round;stroke-linejoin:round;stroke-dasharray:none;stroke-dashoffset:0;stroke-opacity:1"
           d="m -1103.8364,889.36784 c -36.4189,-2.97175 -69.5215,-15.91429 -96.8339,-37.86037 -26.3633,-21.18352 -45.6272,-48.65374 -56.4371,-80.4793 -9.372,-27.59233 -11.6569,-57.46014 -6.5818,-86.03669 10.3393,-58.21671 49.1409,-107.05864 103.5381,-130.32971 15.5026,-6.63197 31.6989,-10.86703 50.0941,-13.09875 8.3147,-1.00873 27.9555,-1.00511 36.5901,0.007 64.0518,7.50601 117.19002,46.85143 142.18526,105.27904 16.82316,39.32495 18.52654,83.6765 4.76928,124.17936 -5.15096,15.16497 -11.30837,27.62282 -20.36504,41.20314 -28.57947,42.85439 -74.844,70.84752 -126.4901,76.53491 -6.8831,0.75799 -24.3306,1.1025 -30.4689,0.60162 z m 122.22286,-66.56562 c 2.74723,-0.81584 5.80602,-3.57249 7.50866,-6.76697 l 1.31573,-2.46856 v -26.37393 -26.37391 l 1.3478,-0.56478 c 2.08008,-0.87164 3.87227,-2.58117 5.47924,-5.22654 l 1.46709,-2.41508 v -15.44913 c 0,-10.73586 -0.1504,-15.95114 -0.493,-17.09462 -0.55146,-1.8406 -3.56607,-5.42684 -5.32753,-6.33772 -2.649,-1.36986 -2.47337,0.59529 -2.47591,-27.70371 -10e-4,-16.71394 -0.15536,-26.33697 -0.43733,-27.35233 -0.23926,-0.86157 -1.01125,-2.22279 -1.71554,-3.02493 -0.72714,-0.82816 -1.42643,-2.21221 -1.61814,-3.20264 -0.18569,-0.95931 -0.34575,-8.97032 -0.35568,-17.80225 -0.0179,-15.95032 -0.0246,-16.07287 -0.99599,-18.2693 -1.34429,-3.03969 -3.21194,-5.03321 -5.99666,-6.4008 l -2.3563,-1.15719 -15.4218,-0.20735 -15.4217,-0.20736 -2.2075,-2.54985 c -14.7898,-17.08358 -38.987,-22.88052 -60.1549,-14.41137 l -3.6752,1.47041 -2.9983,-2.84815 c -6.7721,-6.43276 -15.828,-11.11572 -25.5693,-13.22221 -4.5173,-0.97684 -14.6712,-0.98774 -20.1521,-0.0216 -14.4381,2.54498 -27.6176,11.76066 -35.4455,24.78508 -1.0977,1.8264 -2.3022,4.24302 -2.6766,5.37025 l -0.6807,2.04953 h -10.2093 c -9.6754,0 -10.385,0.0536 -13.5693,1.02487 -4.1273,1.2589 -7.501,3.41064 -10.8331,6.90924 -2.8056,2.94571 -4.1834,5.35794 -5.501,9.63092 l -0.8766,2.84295 v 87.05502 c 0,85.82171 0.012,87.08825 0.8246,89.40108 1.3055,3.71452 3.2878,6.72215 6.6401,10.0745 3.5368,3.53693 6.7954,5.45094 11.2807,6.62602 2.94,0.77023 5.9788,0.79359 106.1096,0.81577 90.76679,0.0201 103.33487,-0.052 105.19146,-0.60333 z"
           id="path152" />
      </g>
    </g>
  </g>
</svg>
